<svg width="490" height="1095" viewBox="0 0 490 1095" fill="none" xmlns="http://www.w3.org/2000/svg">
<path d="M441.306 23.7832C394.253 -18.174 337.28 -1.32281 281.059 48.5816C272.711 55.9918 264.383 64.2173 256.099 73.0041C159.912 175.044 70.6284 364.044 42.8913 508.392C53.6991 530.306 62.1394 558.267 67.6946 579.629C69.12 585.106 70.4039 590.251 71.4339 594.625C73.8747 604.984 75.1878 611.696 75.1878 611.696C75.1878 611.696 74.3238 608.435 70.7847 598.174C70.111 596.207 69.3592 594.059 68.4708 591.53C68.0076 590.294 67.5128 589.07 66.9868 587.859C60.714 573.273 43.3599 542.49 35.7202 529.085C29.665 546.845 23.951 564.72 18.5811 582.7C40.6311 623.046 54.0701 692.189 54.0701 692.189C54.0701 692.189 52.9034 687.707 47.3628 672.067C42.4422 658.237 17.9416 615.304 12.1374 605.267C2.20824 641.923 -1.73611 666.668 1.82256 672.691C8.73 684.363 15.3055 704.51 21.0853 726.784C34.1338 776.967 43.1989 838.065 43.1989 838.065C43.1989 838.065 43.4917 842.116 43.9896 848.345C42.1737 890.488 43.2623 934.183 46.5281 973.675C50.8483 1025.96 58.9859 1070.87 69.3592 1094.9L76.4033 1091.07C61.1728 1043.71 54.983 981.651 57.6922 910.078C61.7928 800.682 86.9671 668.747 133.484 531.238C212.077 323.659 321.112 157.109 420.906 77.5684C329.948 159.716 206.844 425.61 169.993 524.072C128.729 634.337 99.4883 737.807 81.8658 836.942C112.273 744.002 210.583 704.056 210.583 704.056C210.583 704.056 258.799 644.588 315.147 559.629C281.395 567.327 225.97 580.508 207.405 588.308C180.02 599.795 172.644 603.715 172.644 603.715C172.644 603.715 261.342 549.695 337.446 525.238C442.107 360.397 556.136 126.218 441.306 23.7832Z" fill="#003B57"/>
</svg>
