<svg width="284" height="200" viewBox="0 0 284 200" fill="none" xmlns="http://www.w3.org/2000/svg">
<path d="M277.972 31.2295C274.705 18.9376 265.088 9.25611 252.872 5.97119C230.734 3.6225e-07 141.953 0 141.953 0C141.953 0 53.1725 3.6225e-07 31.035 5.97119C18.8191 9.25611 9.19837 18.9376 5.93473 31.2295C-3.6225e-07 53.5128 0 100 0 100C0 100 -3.6225e-07 146.487 5.93169 168.771C9.19533 181.062 18.8161 190.744 31.032 194.029C53.1725 200 141.953 200 141.953 200C141.953 200 230.734 200 252.875 194.029C265.091 190.741 274.708 181.062 277.975 168.771C283.907 146.487 283.907 100 283.907 100C283.907 100 283.907 53.5128 277.972 31.2295Z" fill="black"/>
<path d="M112.429 57.083V142.916L187.882 100.003L112.429 57.083Z" fill="#F1F1F1"/>
</svg>
